<svg xmlns="http://www.w3.org/2000/svg" viewBox="0 0 512 512" width="512" height="512">
  <!-- Fondo circular con color primario de AgroConecta -->
  <rect width="512" height="512" rx="96" fill="#2d6a4f"/>
  <!-- Bootstrap Icons: tree-fill (escalado a 512x512, centrado) -->
  <g transform="translate(96, 64) scale(20)">
    <path fill="#ffffff"
      d="M8.416.223a.5.5 0 0 0-.832 0l-3 4.5A.5.5 0 0 0 5 5.5h.098L3.076 8.735A.5.5 0 0 0 3.5 9.5h.191l-1.638 3.276a.5.5 0 0 0 .447.724H7V16h2v-2.5h4.5a.5.5 0 0 0 .447-.724L12.31 9.5h.191a.5.5 0 0 0 .424-.765L10.902 5.5H11a.5.5 0 0 0 .416-.777z"/>
  </g>
</svg>
